{"title":"Nativity 2009 BDRip XVID AC3 HQ Hive-CM8 {REQ}","uid":5977300,"size":1639876960,"categoryP":"video","categoryS":"movies","magnet":"?xt=urn:btih:b6f9d7ce4b912758537b9c86129b9a1336dcf9e0&amp;dn=Nativity+2009+BDRip+XVID+AC3+HQ+Hive-CM8+%7BREQ%7D&amp;tr=udp%3A%2F%2Ftracker.openbittorrent.com%3A80&amp;tr=udp%3A%2F%2Fopen.demonii.com%3A1337&amp;tr=udp%3A%2F%2Ftracker.coppersurfer.tk%3A6969&amp;tr=udp%3A%2F%2Fexodus.desync.com%3A6969","seeders":0,"leechers":0,"uploader":"deffjam555","files":113,"time":1290476222,"description":"Thx Hive\n\nCM8 Doing It Right The First Time\n\nWhy download a touched up rip of a rip BRrip\nGet the real deal BDRip\nEnjoy\nSCREENS:\n &lt;a href=&quot;\nhttp://img525.imageshack.us/img525/4421/nt3.png&quot; rel=&quot;nofollow&quot; target=&quot;_NEW&quot;&gt;\nhttp://img525.imageshack.us/img525/4421/nt3.png&lt;/a&gt; &lt;a href=&quot;\nhttp://img191.imageshack.us/img191/2731/nt4.png&quot; rel=&quot;nofollow&quot; target=&quot;_NEW&quot;&gt;\nhttp://img191.imageshack.us/img191/2731/nt4.png&lt;/a&gt; &lt;a href=&quot;\nhttp://img600.imageshack.us/img600/2299/nt5.png&quot; rel=&quot;nofollow&quot; target=&quot;_NEW&quot;&gt;\nhttp://img600.imageshack.us/img600/2299/nt5.png&lt;/a&gt; &lt;a href=&quot;\nhttp://img227.imageshack.us/img227/2730/nt1.png&quot; rel=&quot;nofollow&quot; target=&quot;_NEW&quot;&gt;\nhttp://img227.imageshack.us/img227/2730/nt1.png&lt;/a&gt; &lt;a href=&quot;\nhttp://img220.imageshack.us/img220/7562/nt2.png&quot; rel=&quot;nofollow&quot; target=&quot;_NEW&quot;&gt;\nhttp://img220.imageshack.us/img220/7562/nt2.png&lt;/a&gt;\n\n\nSource UK Bluray\n\nVideo: 720x400 @bitrate 1600 2pass\nAudio: DTS to AC3 5.1 @448\nSample: yes included\nSubs: yes included in srt /subs\nNativity IMDB Link\n\nGeneral\nComplete name : Nativity.2009.BDRip.XVID.AC3.HQ.Hive-CM8.avi\nFormat : AVI\nFormat/Info : Audio Video Interleave\nFile size : 1.52 GiB\nDuration : 1h 45mn\nOverall bit rate : 2 056 Kbps\nWriting application : Nandub v1.0rc2\nWriting library : Nandub build 1853/release\n\nVideo\nID : 0\nFormat : MPEG-4 Visual\nFormat profile : Advanced Simple@L5\nFormat settings, BVOP : Yes\nFormat settings, QPel : Yes\nFormat settings, GMC : No warppoints\nFormat settings, Matrix : Default (H.263)\nMuxing mode : Packed bitstream\nCodec ID : XVID\nCodec ID/Hint : XviD\nDuration : 1h 45mn\nBit rate : 1 598 Kbps\nWidth : 720 pixels\nHeight : 400 pixels\nDisplay aspect ratio : 16:9\nFrame rate : 23.976 fps\nColor space : YUV\nChroma subsampling : 4:2:0\nBit depth : 8 bits\nScan type : Progressive\nBits/(Pixel*Frame) : 0.231\nStream size : 1.18 GiB (78%)\nWriting library : XviD 1.2.1 (UTC 2008-12-04)\n\nAudio\nID : 1\nFormat : AC-3\nFormat/Info : Audio Coding 3\nMode extension : CM (complete main)\nCodec ID : 2000\nDuration : 1h 45mn\nBit rate mode : Constant\nBit rate : 448 Kbps\nChannel(s) : 6 channels\nChannel positions : Front: L C R, Side: L R, LFE\nSampling rate : 48.0 KHz\nBit depth : 16 bits\nStream size : 339 MiB (22%)\nAlignment : Split accross interleaves\nInterleave, duration : 42 ms (1.00 video frame)\nInterleave, preload duration : 500 ms\n\n\nCAST\nMartin Freeman - Paul Maddens\nAshley Jensen - Jennifer\nPam Ferris - Headmistress\nRicky Tomlinson - Mayor\n\nPLOT\nThis Christmas, primary school teacher Paul Maddens is\ncharged with producing the school's nativity play.\nCompeting against the posh rival school for the honor of\nbest reviewed show in town, the stakes are raised when Paul\nidly boasts that his ex-girlfriend Jennifer, a Hollywood Producer,\nis coming to see his show with a view to turning it into a film.\nThe only trouble is - they haven't spoken in years.","torrent":{"xt":"urn:btih:b6f9d7ce4b912758537b9c86129b9a1336dcf9e0","amp;dn":"Nativity+2009+BDRip+XVID+AC3+HQ+Hive-CM8+%7BREQ%7D","amp;tr":["udp%3A%2F%2Ftracker.openbittorrent.com%3A80","udp%3A%2F%2Fopen.demonii.com%3A1337","udp%3A%2F%2Ftracker.coppersurfer.tk%3A6969","udp%3A%2F%2Fexodus.desync.com%3A6969"],"infoHash":"b6f9d7ce4b912758537b9c86129b9a1336dcf9e0","infoHashBuffer":{"type":"Buffer","data":[182,249,215,206,75,145,39,88,83,123,156,134,18,155,154,19,54,220,249,224]},"announce":[],"urlList":[]}}